<?xml version="1.0" encoding="utf-8"?>
<!-- Generator: Adobe Illustrator 19.2.1, SVG Export Plug-In . SVG Version: 6.00 Build 0)  -->
<svg version="1.1" id="Layer_1" xmlns="http://www.w3.org/2000/svg" xmlns:xlink="http://www.w3.org/1999/xlink" x="0px" y="0px"
	 viewBox="0 0 549 545" style="enable-background:new 0 0 549 545;" xml:space="preserve">
<style type="text/css">
	.st0{fill:#FFFFFF;fill-opacity:0.2;}
</style>
<g>
	<path class="st0" d="M10,199l6-8l-3-1l7-20l9,4l48-63l-19-8l3-4l11-13l18,9l19-24l-12-8l16-13l8,6l20-24l13-7l40-16l35-8l-67,79
		l57,42l44,28l9-8l68-79l-26-19l-2-4v-8l2-4l3-3l4,1l32,22l25-30l21,9l29,17l34,27l17,17l-19,28l24,14l7,1l28,18l2,3l10,22l-8-2
		l-7,28l-35,53l8,2l1-8l4-5h3l17,9l26-48l5,24l-23,44l27,14l-2,22l-33-18l-6,9l-10,32l-8,41l-2,47l1,25l-12,15l-2-29l-68-27l-28,38
		l82,33l-33,27l4-17l-35-13l-8,26l30,10l-26,14l-16-5l-37-20l-11,17l37,19l-30,8l-18-10l-11,16l-20,1l47-72l57-79l-7-2L280,546h-19
		l71-105l-38-17l-87,114l-17-5l98-129l32-39l-20-11l-57,67l-28,37l-47,67l-16-7l5-7l-59-29l-11-9l-5-6l5-10l5-1l28,14v-9l4-5h4
		l51,24l2-3l-44-21l-5-7l2-12l3-2h4l52,25l11-16l-33-15l-3-3l-2-6l3-10l2-2h3l43,19l7-9L99,361l-31,28l-26,29l-9-17l20-22l-30-20
		l-7-3l-1,4L4,320l-4-38v-20l4-38l6-23V199z M466,245l33-47l6-11l5-18v-2l-23-15h-2l-49,76l4,2L466,245z M148,94L37,239l37,28l29-32
		l99-101L148,94z M397,134l-4-6v-10l3-5l3-1l33,17l4-7l-81-49l-34,39l91,51l10-16L397,134z M435,251l-11-6l-74,110l30,13l75-106
		L435,251z M470,270l-74,105l8,3l50-78l17-29L470,270z M316,339l14,9l4,1l75-111l-19-7l-28,45l-45,62L316,339z M401,213l20,7l49-75
		l-21-13l-30,52L401,213z M250,165l-33-20l-94,97l39,22l53-61L250,165z M320,221l-5-8v-4l2-6l4-4h2l52,27l1-3l-100-60l-42,46l25,13
		l4,5h36l32,8l25,20l8-11L320,221z M214,338l-6,13l53,22l19-22l-39-3L214,338z M194,345l10-23l-2-28l-36-9l-53,60l50,22l-2-4l1-9
		l-5-2l-5-7l2-12l4-3l2,1L194,345z M69,363l25-23l54-61l-40-22l-79,82l31,21l5,6L69,363z M183,267l22,5l16-30l18-7l-19-11L183,267z
		 M215,288l2,28l26,10l54,4l13-11l35-49l-17-13l-29-8h-40l-30,12L215,288z M387,206l15-26l-95-52l-17,20l95,57L387,206z M368,57
		l79,48l20-27l-79-45L368,57z M337,372l-29,36l36,16l24-38L337,372z M375,491l9-26l-18-7l-14,20L375,491z M486,277l-15,26l18,9
		l10-29L486,277z M461,320l-42,64l56,23l1-38l7-37L461,320z"/>
</g>
</svg>
