<?xml version="1.0" encoding="utf-8"?>
<!-- Generator: Adobe Illustrator 19.2.1, SVG Export Plug-In . SVG Version: 6.00 Build 0)  -->
<svg version="1.1" id="Layer_1" xmlns="http://www.w3.org/2000/svg" xmlns:xlink="http://www.w3.org/1999/xlink" x="0px" y="0px"
	 viewBox="0 0 485 149" style="enable-background:new 0 0 485 149;" xml:space="preserve">
<style type="text/css">
	.st0{fill:#FFFFFF;}
</style>
<g>
	<path class="st0" d="M485,84c-1.7,0.1-2.4,0.1-3.7,0.1c-1.1,0-2.4,0-4-0.1c-0.6,2.1-1.6,5.1-3.2,9.7c-1.4,3.8-2.2,6.9-2.7,10h-0.2
		c-0.7-3.9-1.2-5.5-2.9-10c-1.5-3.8-2.7-7-3.6-9.7c-1.8,0.1-2.3,0.1-3.9,0.1c-1.4,0-3.1,0-3.9-0.1c0.3,1.8,0.8,3.3,6.3,15.1
		c2.8,5.9,3.8,8.6,4.8,10.6c-0.9,1.4-1.4,2.5-2.7,5.4c-1.1,2.4-1.9,4.2-3.1,6.5c1.9-0.1,2.7-0.1,4.5-0.1c1.3,0,2.8,0.1,3.7,0.1
		c1.3-3.7,2.5-6.7,5.9-15.4C481.8,92.4,484.4,86.3,485,84 M455,91c-0.1-1.3-0.2-2-0.2-3.1c0-1.1,0-2.2,0.2-3.7
		c-1.5,0.2-6.4,0-7.9,0.5l-0.2-0.1c0.5-2.1,0.3-4.2,0.5-6.4c-2,0.4-4.4,0.6-6.4,0.6c0.1,1.6,0.1,4.7,0.5,5.7l-0.1,0.1
		c-1.3-0.4-4.4-0.3-6-0.4c0.1,1,0.2,2.1,0.2,3.5c0,1.4-0.1,2-0.2,3.3c1.3-0.2,4-0.1,5.7-0.7l0.2,0.1c-0.5,3.1-0.9,9.1-0.9,12.1
		c0,6.4,2.4,9.3,8.3,9.3c2.1,0,4.3-0.3,6.1-0.7c-0.1-1.1-0.3-2.3-0.3-3.3c0-1.1,0-2,0.1-2.8c-0.9,0.2-1.9,0.2-3,0.2
		c-3.9,0-4.4-0.6-4.4-4.9c0-3-0.3-8.1-0.6-9.8l0.2-0.2C448.8,90.9,452.8,90.7,455,91 M425.7,95.9c-1.7-0.2-3.8-0.3-5.8-0.3
		c-2.2,0-4.4,0.1-6.4,0.4c0-4.5,2.2-6.5,6.4-6.5C424.2,89.4,425.7,91.2,425.7,95.9 M432.3,100.2V98c0-10.3-4.4-15-12.2-15
		C412,83,407,89,407,97.6c0,9.1,5.5,14.4,14.2,14.4c4.2,0,7.5-1,9.3-2.4c-0.4-1.6-0.5-4.6-0.5-5.5c-2.1,1.2-5.3,1.6-8.6,1.6
		c-4.6,0-7.3-1.9-7.7-5.8c0.8,0.2,3.1,0.3,5,0.3H432.3z M401,84c-1.3,0.1-2.4,0.1-3.8,0.1c-1.6,0-2.3-0.1-3.7-0.1
		c0.1,4.3,0.3,9.4,0.3,14.2c0,3.9-0.1,8.6-0.1,13.1c1.4-0.1,2.2-0.1,3.6-0.1c1.4,0,2.3,0.1,3.7,0.1c-0.1-4.6-0.2-9.2-0.2-13.1
		C400.7,93.5,400.8,88.7,401,84 M401.5,78.7c-0.1-1.4-0.1-2-0.1-3.3c0-1.3,0.1-2,0.1-3.2c-1.3,0.1-2.6,0.1-4.4,0.1
		c-1.8,0-3-0.1-4.4-0.1c0.1,1.1,0.1,1.9,0.1,3.2c0,1.3,0,2-0.1,3.3c1.5-0.1,2.4-0.1,4.4-0.1C399.1,78.6,400.2,78.6,401.5,78.7
		 M388.2,86.2c-1.8-2.2-4.4-3-8-3c-8.8,0-14.2,6.1-14.2,14.2c0,8.3,5.4,14.6,14,14.6c3.1,0,5.8-1,7.7-2.8c-0.4-1.9-0.6-4.6-0.6-6.2
		c-1.9,1.6-4,2.2-6.7,2.2c-4.9,0-7.7-3.1-7.7-7.7c0-4.6,2.8-7.6,7.7-7.6c3.2,0,4.9,0.6,6.9,2.5C387.5,89.9,387.7,87.6,388.2,86.2
		 M354.9,97.5c0,4.7-2.3,8.4-7,8.4c-4.7,0-7-3.7-7-8.4c0-5,2.4-7.9,7.1-7.9C352.6,89.6,354.9,92.5,354.9,97.5 M361.5,97.5
		c0-8.8-5.6-14.4-13.6-14.4c-8,0-13.6,5.6-13.6,14.3c0,8.9,5.4,15,13.6,15C356.1,112.3,361.5,106.2,361.5,97.5 M329.5,103
		c0-4.3-2.2-6.5-7.2-7.4c-5-1-5.4-1.3-5.4-3c0-1.9,1.5-2.9,5.3-2.9c2.7,0,4.9,0.3,6.6,1.3c0.1-2.2,0.3-4.5,0.7-5.8
		c-2-1.6-4.8-2.1-7.7-2.1c-7.4,0-11.5,3.6-11.5,9.1c0,4.1,2,6.6,7.4,7.5c4.8,0.8,5.3,1.3,5.3,3c0,2-1.1,2.9-4.6,2.9
		c-2.5,0-4.8-0.5-6.7-1.3c-0.1,1.9-0.2,4-0.5,5.8c1.9,1.3,4.8,1.9,7.5,1.9C325.4,112,329.5,108.8,329.5,103 M286.6,91.8
		c-0.2,1.3-0.3,3.4-0.3,5c0,2,0.1,3.6,0.2,4.1c-1,1.5-2.7,2.4-5.6,2.4c-4.2,0-6.5-2.5-6.5-6.7c0-4.1,1.8-6.5,6.3-6.5
		C283.6,90.1,285.4,90.7,286.6,91.8 M293.4,84c-1.3,0.1-1.9,0.1-2.7,0.1c-0.7,0-1.6-0.1-2.7-0.1c-0.3,0.9-0.5,1.8-0.7,3.2l-0.2,0.1
		c-1.3-2.7-3.5-4-7.3-4c-7.5,0-12.3,5-12.3,13.3c0,7.6,5.1,13,12.4,13c3.5,0,5.7-2.2,6.5-4.3l0.1,0.1c-0.1,0.5-0.2,1.3-0.2,2.2v1.3
		c0,4.7-2.1,6.7-7.1,6.7c-2.1,0-4.1-0.2-5.8-0.7c-0.1,2-0.2,3.8-0.5,5.9c2,1,4.4,1.4,6.6,1.4c7.9,0,13.5-4.1,13.5-14.2V96.8
		C293.1,92.1,293.2,88.3,293.4,84 M255.3,104.2c-1.1,1.5-2.5,2.2-5,2.2c-2.9,0-4.1-1-4.1-3.1c0-2.3,1.5-3.1,4.9-3.3
		c1.8-0.1,3.2-0.1,4.2-0.3V104.2z M262.6,111.4c-0.4-2.4-0.6-4.9-0.6-7.2v-10c0-7.7-3.6-11-11.6-11c-4.4,0-7.8,1.2-9.7,4
		c0.4,1.4,0.6,3.4,0.7,5.5l0.1,0.1c1.4-1.9,4.2-3,8.4-3c4.1,0,5.5,0.7,5.5,4.1v1.4H254c-9.6,0-14.3,2.3-14.3,8.7
		c0,5.3,3.5,8.3,9,8.3c4.2,0,6.2-1.8,7.3-5.2h0.2c0.1,1.4,0.3,3,0.6,4.3c1.3-0.1,2.3-0.1,3-0.1C260.8,111.2,261.8,111.3,262.6,111.4
		 M227.4,104.2c-1.1,1.5-2.5,2.2-5,2.2c-2.9,0-4.1-1-4.1-3.1c0-2.3,1.5-3.1,4.9-3.3c1.8-0.1,3.2-0.1,4.2-0.3V104.2z M234.7,111.4
		c-0.4-2.4-0.6-4.9-0.6-7.2v-10c0-7.7-3.6-11-11.6-11c-4.4,0-7.8,1.2-9.7,4c0.4,1.4,0.6,3.4,0.7,5.5l0.1,0.1c1.4-1.9,4.2-3,8.4-3
		c4.1,0,5.5,0.7,5.5,4.1v1.4h-1.3c-9.6,0-14.3,2.3-14.3,8.7c0,5.3,3.5,8.3,9,8.3c4.2,0,6.2-1.8,7.3-5.2h0.2c0.1,1.4,0.3,3,0.6,4.3
		c1.3-0.1,2.3-0.1,3-0.1C232.8,111.2,233.8,111.3,234.7,111.4 M209.2,84c-1.5,0.2-2.1,0.1-3.4,0.1c-1.4,0-1.9,0-3.7-0.1
		c-0.5,2.5-1.6,6-2.4,9.2c-0.9,3.6-1.8,7.6-2.2,10.8h-0.2c-0.5-3.4-1.7-7.3-3.1-11.7c-1.3-4-2.3-6.8-2.9-8.3
		c-0.6,0.1-1.8,0.1-2.8,0.1s-2.2-0.1-2.8-0.1c-0.7,1.6-1.5,4.2-2.9,8.3c-1.3,4.3-2.5,8.5-3.1,11.7h-0.1c-0.5-3.1-1.3-6.7-2.3-10.8
		c-0.8-3.3-1.9-6.6-2.4-9.2c-1.4,0.1-2.3,0.1-3.8,0.1c-1.4,0-1.8,0-3.5-0.1c0,1.1,1.1,5,4.5,15.4c1.7,5.2,2.9,8.9,3.7,11.9
		c1.1-0.1,2.1-0.1,3.2-0.1c1,0,2.5,0.1,3,0.1c0.4-1,2.7-6.2,4.1-10.7c1-3.2,1.9-6.3,2.2-9.3h0.2c0.3,3.1,1.2,6.1,2.2,9.2
		c1.5,4.6,3.7,9.9,4.1,10.8c0.5-0.1,2.1-0.1,3.2-0.1c1,0,3,0.1,3,0.1c0.6-2.9,1.8-6.3,3.6-11.9C208,89.2,209.2,85,209.2,84"/>
	<path class="st0" d="M74.6,0C33.4,0,0,33.4,0,74.5C0,115.6,33.4,149,74.6,149c41.2,0,74.6-33.4,74.6-74.5
		C149.2,33.4,115.8,0,74.6,0z M90.1,109.6l-0.1-23.6C89.8,77.3,83.2,70,74.5,70c-8.6,0-15.2,7.3-15.2,16.1v23.6h-28l4.8-46.8
		l13.7-28.6l5.9,23.6l18.9-31.9l19.2,31.9l5.6-23.6l13.8,28.6l4.8,46.8H90.1z"/>
</g>
</svg>
